<svg class="icon icon--brand" viewBox="0 0 1728 663" fill="none">
<g clip-path="url(#clip0_570_2)">
<rect x="93" y="148.878" width="133.724" height="262.459" fill="white"/>
<rect x="247.683" y="148.878" width="133.724" height="262.459" fill="white"/>
<rect x="402.446" y="148.878" width="134.094" height="346.286" fill="white"/>
<path d="M477.114 495V201.361H484.245L623.933 445.501H620.158L759.426 201.361H766.558V495H758.168V213.526H761.524L624.352 453.471H619.319L481.728 213.526H485.503V495H477.114ZM825.728 341.888H989.746V349.859H825.728V341.888ZM827.825 487.03H1014.91V495H819.435V201.361H1008.62V209.331H827.825V487.03ZM1040.91 495V201.361H1048.04L1267.85 485.352H1263.24V201.361H1271.63V495H1264.49L1044.69 211.009H1049.3V495H1040.91ZM1324.65 495V201.361H1435.81C1466.86 201.361 1493.98 207.793 1517.19 220.658C1540.41 233.242 1558.44 250.581 1571.31 272.674C1584.17 294.766 1590.6 319.935 1590.6 348.181C1590.6 376.426 1584.17 401.595 1571.31 423.688C1558.44 445.781 1540.41 463.259 1517.19 476.123C1493.98 488.708 1466.86 495 1435.81 495H1324.65ZM1333.04 487.03H1434.98C1464.9 487.03 1490.91 481.017 1513 468.992C1535.09 456.967 1552.15 440.607 1564.18 419.912C1576.2 398.938 1582.21 375.028 1582.21 348.181C1582.21 321.334 1576.2 297.563 1564.18 276.868C1552.15 255.894 1535.09 239.394 1513 227.369C1490.91 215.344 1464.9 209.331 1434.98 209.331H1333.04V487.03ZM1612.49 495V201.361H1620.88V495H1612.49Z" fill="white"/>
<path d="M103.654 481.335V430.52H104.888L129.061 472.769H128.408L152.508 430.52H153.742V481.335H152.29V432.626H152.871L129.134 474.148H128.263L104.452 432.626H105.106V481.335H103.654ZM193.527 481.335V472.406V471.172V456.799C193.527 452.879 192.51 449.927 190.478 447.942C188.445 445.958 185.493 444.966 181.622 444.966C178.815 444.966 176.25 445.45 173.927 446.418C171.604 447.386 169.62 448.644 167.974 450.193L166.958 449.176C168.749 447.483 170.926 446.128 173.491 445.111C176.056 444.095 178.742 443.587 181.549 443.587C185.905 443.587 189.22 444.7 191.494 446.926C193.817 449.152 194.978 452.419 194.978 456.726V481.335H193.527ZM179.226 481.552C176.419 481.552 174.024 481.117 172.039 480.246C170.055 479.375 168.531 478.141 167.466 476.544C166.45 474.947 165.942 473.108 165.942 471.027C165.942 469.236 166.353 467.591 167.176 466.09C168.047 464.542 169.45 463.308 171.386 462.388C173.322 461.42 175.959 460.936 179.299 460.936H194.325V462.316H179.226C174.967 462.316 171.918 463.138 170.079 464.784C168.289 466.381 167.394 468.438 167.394 470.954C167.394 473.761 168.434 476.011 170.515 477.705C172.596 479.351 175.5 480.173 179.226 480.173C182.856 480.173 185.832 479.351 188.155 477.705C190.526 476.011 192.317 473.64 193.527 470.591L194.253 471.535C193.236 474.535 191.446 476.955 188.881 478.794C186.364 480.633 183.146 481.552 179.226 481.552ZM222.87 481.552C219.434 481.552 216.336 480.754 213.578 479.157C210.819 477.512 208.642 475.261 207.045 472.406C205.448 469.502 204.649 466.211 204.649 462.533C204.649 458.807 205.448 455.54 207.045 452.733C208.642 449.878 210.819 447.652 213.578 446.055C216.336 444.41 219.434 443.587 222.87 443.587C226.306 443.587 229.379 444.41 232.089 446.055C234.799 447.652 236.928 449.878 238.477 452.733C240.074 455.54 240.872 458.807 240.872 462.533C240.872 466.211 240.074 469.502 238.477 472.406C236.928 475.261 234.799 477.512 232.089 479.157C229.379 480.754 226.306 481.552 222.87 481.552ZM222.87 480.173C226.064 480.173 228.919 479.423 231.436 477.923C234 476.423 236.009 474.342 237.461 471.68C238.912 469.018 239.638 465.969 239.638 462.533C239.638 459.049 238.912 456 237.461 453.387C236.009 450.725 234 448.668 231.436 447.217C228.919 445.716 226.064 444.966 222.87 444.966C219.676 444.966 216.82 445.716 214.304 447.217C211.787 448.668 209.779 450.725 208.279 453.387C206.827 456 206.101 459.049 206.101 462.533C206.101 465.969 206.827 469.018 208.279 471.68C209.779 474.342 211.787 476.423 214.304 477.923C216.82 479.423 219.676 480.173 222.87 480.173ZM239.638 481.335V467.542L240.364 462.461L239.638 457.379V427.472H241.09V481.335H239.638ZM269.902 481.552C266.272 481.552 263.054 480.754 260.247 479.157C257.44 477.512 255.214 475.261 253.569 472.406C251.972 469.502 251.173 466.211 251.173 462.533C251.173 458.807 251.923 455.54 253.423 452.733C254.924 449.878 256.98 447.652 259.594 446.055C262.256 444.41 265.232 443.587 268.523 443.587C271.813 443.587 274.766 444.385 277.379 445.982C280.041 447.531 282.121 449.709 283.622 452.516C285.17 455.323 285.945 458.541 285.945 462.17C285.945 462.219 285.945 462.267 285.945 462.316C285.945 462.364 285.945 462.437 285.945 462.533H251.972V461.154H285.146L284.565 462.243C284.565 458.952 283.864 456 282.46 453.387C281.057 450.774 279.145 448.717 276.725 447.217C274.354 445.716 271.62 444.966 268.523 444.966C265.474 444.966 262.739 445.716 260.32 447.217C257.9 448.717 255.988 450.774 254.585 453.387C253.23 456 252.552 458.952 252.552 462.243V462.533C252.552 465.969 253.303 469.018 254.803 471.68C256.303 474.342 258.36 476.423 260.973 477.923C263.586 479.423 266.563 480.173 269.902 480.173C272.418 480.173 274.79 479.689 277.016 478.721C279.29 477.754 281.178 476.302 282.678 474.366L283.694 475.382C282.049 477.415 280.016 478.963 277.597 480.028C275.177 481.044 272.612 481.552 269.902 481.552ZM296.029 481.335V443.805H297.481V454.185L297.335 453.968C298.352 450.677 300.118 448.136 302.635 446.345C305.199 444.506 308.394 443.587 312.217 443.587V445.039C312.168 445.039 312.096 445.039 311.999 445.039C311.951 445.039 311.878 445.039 311.781 445.039C307.28 445.039 303.772 446.491 301.255 449.394C298.739 452.25 297.481 456.17 297.481 461.154V481.335H296.029ZM341.98 481.335V472.406V471.172V456.799C341.98 452.879 340.964 449.927 338.931 447.942C336.899 445.958 333.946 444.966 330.075 444.966C327.268 444.966 324.703 445.45 322.38 446.418C320.057 447.386 318.073 448.644 316.428 450.193L315.411 449.176C317.202 447.483 319.38 446.128 321.945 445.111C324.51 444.095 327.195 443.587 330.002 443.587C334.358 443.587 337.673 444.7 339.947 446.926C342.27 449.152 343.432 452.419 343.432 456.726V481.335H341.98ZM327.679 481.552C324.872 481.552 322.477 481.117 320.493 480.246C318.509 479.375 316.984 478.141 315.919 476.544C314.903 474.947 314.395 473.108 314.395 471.027C314.395 469.236 314.806 467.591 315.629 466.09C316.5 464.542 317.904 463.308 319.839 462.388C321.775 461.42 324.413 460.936 327.752 460.936H342.778V462.316H327.679C323.421 462.316 320.372 463.138 318.533 464.784C316.742 466.381 315.847 468.438 315.847 470.954C315.847 473.761 316.887 476.011 318.968 477.705C321.049 479.351 323.953 480.173 327.679 480.173C331.309 480.173 334.285 479.351 336.608 477.705C338.979 476.011 340.77 473.64 341.98 470.591L342.706 471.535C341.69 474.535 339.899 476.955 337.334 478.794C334.818 480.633 331.599 481.552 327.679 481.552ZM366.169 481.552C363.12 481.552 360.265 481.069 357.603 480.101C354.941 479.133 352.909 477.899 351.505 476.398L352.376 475.237C353.732 476.544 355.619 477.705 358.039 478.721C360.458 479.689 363.168 480.173 366.169 480.173C370.621 480.173 373.815 479.399 375.751 477.85C377.687 476.302 378.655 474.293 378.655 471.825C378.655 470.035 378.195 468.631 377.276 467.615C376.356 466.55 375.122 465.752 373.573 465.219C372.073 464.639 370.403 464.179 368.564 463.84C366.725 463.501 364.886 463.138 363.047 462.751C361.208 462.364 359.515 461.832 357.966 461.154C356.466 460.428 355.256 459.46 354.336 458.25C353.417 456.992 352.957 455.323 352.957 453.242C352.957 451.548 353.417 449.975 354.336 448.523C355.256 447.071 356.684 445.886 358.619 444.966C360.604 444.047 363.144 443.587 366.242 443.587C368.564 443.587 370.863 443.95 373.138 444.676C375.412 445.353 377.251 446.273 378.655 447.434L377.784 448.596C376.283 447.386 374.517 446.491 372.484 445.91C370.452 445.281 368.371 444.966 366.242 444.966C362.128 444.966 359.128 445.765 357.24 447.362C355.401 448.959 354.482 450.919 354.482 453.242C354.482 455.081 354.941 456.557 355.861 457.67C356.78 458.734 357.99 459.557 359.49 460.138C361.039 460.719 362.733 461.178 364.572 461.517C366.411 461.856 368.226 462.219 370.016 462.606C371.855 462.993 373.525 463.525 375.025 464.203C376.574 464.881 377.808 465.824 378.727 467.034C379.647 468.196 380.107 469.793 380.107 471.825C380.107 473.713 379.598 475.406 378.582 476.907C377.566 478.358 376.017 479.496 373.936 480.318C371.904 481.141 369.315 481.552 366.169 481.552Z" fill="white"/>
</g>
<defs>
<clipPath id="clip0_570_2">
<rect width="1728" height="663" fill="white"/>
</clipPath>
</defs>
</svg>
